<?xml version="1.0" encoding="iso-8859-1"?>
<!-- Generator: Adobe Illustrator 16.0.0, SVG Export Plug-In . SVG Version: 6.00 Build 0)  -->
<!DOCTYPE svg PUBLIC "-//W3C//DTD SVG 1.1//EN" "http://www.w3.org/Graphics/SVG/1.1/DTD/svg11.dtd">
<svg version="1.1" id="Capa_1" xmlns="http://www.w3.org/2000/svg" xmlns:xlink="http://www.w3.org/1999/xlink" x="0px" y="0px"
	 width="535.5px" height="535.5px" viewBox="0 0 535.5 535.5" style="enable-background:new 0 0 535.5 535.5;" xml:space="preserve"
	>
<g>
	<g>
		<path d="M504.9,233.325c7.649-7.65,11.475-19.125,11.475-32.513c0-21.038-13.388-38.25-30.6-43.987
			c7.649-7.65,11.475-19.125,11.475-32.513c0-26.775-21.037-47.812-47.812-47.812C455.175,68.85,459,59.288,459,47.812
			C459,21.038,437.963,0,411.188,0H254.362H143.438H38.25C17.212,0,0,17.212,0,38.25v248.625c0,21.037,17.212,38.25,38.25,38.25
			h105.188H153c0,0,55.462,5.737,86.062,61.2C269.662,441.787,229.5,535.5,306,535.5s86.062-114.75,66.938-210.375h114.75
			c26.775,0,47.812-21.037,47.812-47.812C535.5,256.275,522.112,239.062,504.9,233.325z M133.875,306H38.25
			c-9.562,0-19.125-7.65-19.125-19.125V38.25c0-11.475,9.562-19.125,19.125-19.125h95.625V306z M487.688,306h-137.7l3.825,19.125
			c17.213,97.537,9.562,191.25-47.812,191.25c-55.462,0-21.037-82.237-49.725-139.612c-13.387-24.862-32.512-40.163-49.725-51.638
			c0,0-24.862-19.125-53.55-19.125c0-38.25,0-286.875,0-286.875h187.425h70.763c15.3,0,28.688,13.388,28.688,28.688
			S426.487,76.5,411.188,76.5H382.5v19.125h66.938c15.3,0,28.688,13.388,28.688,28.688S464.737,153,449.438,153h-47.812v19.125
			h66.938c15.3,0,28.688,13.388,28.688,28.688S483.862,229.5,468.562,229.5H420.75v19.125h66.938
			c15.3,0,28.688,13.388,28.688,28.688S502.987,306,487.688,306z"/>
		<circle cx="76.5" cy="76.5" r="19.125"/>
	</g>
</g>
<g>
</g>
<g>
</g>
<g>
</g>
<g>
</g>
<g>
</g>
<g>
</g>
<g>
</g>
<g>
</g>
<g>
</g>
<g>
</g>
<g>
</g>
<g>
</g>
<g>
</g>
<g>
</g>
<g>
</g>
</svg>
